<mxfile host="app.diagrams.net" modified="2022-03-29T14:06:41.175Z" agent="5.0 (Windows NT 10.0; Win64; x64) AppleWebKit/537.36 (KHTML, like Gecko) Chrome/98.0.4758.102 Safari/537.36" etag="356sG6gk2xlCL-V4rVxL" version="17.2.4" type="github">
  <diagram name="Page-1" id="74e2e168-ea6b-b213-b513-2b3c1d86103e">
    <mxGraphModel dx="897" dy="622" grid="1" gridSize="10" guides="1" tooltips="1" connect="1" arrows="1" fold="1" page="1" pageScale="1" pageWidth="1100" pageHeight="850" background="none" math="0" shadow="0">
      <root>
        <mxCell id="0" />
        <mxCell id="1" parent="0" />
        <mxCell id="ZzXBGJE-0dsDp70dzkFh-5" value="" style="edgeStyle=orthogonalEdgeStyle;rounded=0;orthogonalLoop=1;jettySize=auto;html=1;" edge="1" parent="1" source="ZzXBGJE-0dsDp70dzkFh-1" target="ZzXBGJE-0dsDp70dzkFh-4">
          <mxGeometry relative="1" as="geometry" />
        </mxCell>
        <mxCell id="ZzXBGJE-0dsDp70dzkFh-1" value="3D打印" style="strokeWidth=2;html=1;shape=mxgraph.flowchart.start_1;whiteSpace=wrap;" vertex="1" parent="1">
          <mxGeometry x="100" y="150" width="100" height="60" as="geometry" />
        </mxCell>
        <mxCell id="ZzXBGJE-0dsDp70dzkFh-7" value="" style="edgeStyle=orthogonalEdgeStyle;rounded=0;orthogonalLoop=1;jettySize=auto;html=1;" edge="1" parent="1" source="ZzXBGJE-0dsDp70dzkFh-4" target="ZzXBGJE-0dsDp70dzkFh-6">
          <mxGeometry relative="1" as="geometry" />
        </mxCell>
        <mxCell id="ZzXBGJE-0dsDp70dzkFh-24" value="" style="edgeStyle=orthogonalEdgeStyle;rounded=0;orthogonalLoop=1;jettySize=auto;html=1;" edge="1" parent="1" source="ZzXBGJE-0dsDp70dzkFh-4" target="ZzXBGJE-0dsDp70dzkFh-23">
          <mxGeometry relative="1" as="geometry" />
        </mxCell>
        <mxCell id="ZzXBGJE-0dsDp70dzkFh-26" value="" style="edgeStyle=orthogonalEdgeStyle;rounded=0;orthogonalLoop=1;jettySize=auto;html=1;" edge="1" parent="1" source="ZzXBGJE-0dsDp70dzkFh-4" target="ZzXBGJE-0dsDp70dzkFh-25">
          <mxGeometry relative="1" as="geometry" />
        </mxCell>
        <mxCell id="ZzXBGJE-0dsDp70dzkFh-4" value="建立模型" style="rounded=1;whiteSpace=wrap;html=1;strokeWidth=2;" vertex="1" parent="1">
          <mxGeometry x="90" y="290" width="120" height="60" as="geometry" />
        </mxCell>
        <mxCell id="ZzXBGJE-0dsDp70dzkFh-15" value="" style="edgeStyle=orthogonalEdgeStyle;rounded=0;orthogonalLoop=1;jettySize=auto;html=1;" edge="1" parent="1" source="ZzXBGJE-0dsDp70dzkFh-6" target="ZzXBGJE-0dsDp70dzkFh-14">
          <mxGeometry relative="1" as="geometry" />
        </mxCell>
        <mxCell id="ZzXBGJE-0dsDp70dzkFh-17" value="" style="edgeStyle=orthogonalEdgeStyle;rounded=0;orthogonalLoop=1;jettySize=auto;html=1;" edge="1" parent="1" source="ZzXBGJE-0dsDp70dzkFh-6" target="ZzXBGJE-0dsDp70dzkFh-16">
          <mxGeometry relative="1" as="geometry" />
        </mxCell>
        <mxCell id="ZzXBGJE-0dsDp70dzkFh-6" value="设计模型" style="shape=singleArrow;whiteSpace=wrap;html=1;arrowWidth=0.4;arrowSize=0.4;rounded=1;strokeWidth=2;" vertex="1" parent="1">
          <mxGeometry x="240" y="250" width="80" height="60" as="geometry" />
        </mxCell>
        <mxCell id="ZzXBGJE-0dsDp70dzkFh-19" value="" style="edgeStyle=orthogonalEdgeStyle;rounded=0;orthogonalLoop=1;jettySize=auto;html=1;" edge="1" parent="1" source="ZzXBGJE-0dsDp70dzkFh-14" target="ZzXBGJE-0dsDp70dzkFh-18">
          <mxGeometry relative="1" as="geometry" />
        </mxCell>
        <mxCell id="ZzXBGJE-0dsDp70dzkFh-14" value="产品设计图" style="whiteSpace=wrap;html=1;rounded=1;strokeWidth=2;" vertex="1" parent="1">
          <mxGeometry x="360" y="210" width="90" height="60" as="geometry" />
        </mxCell>
        <mxCell id="ZzXBGJE-0dsDp70dzkFh-20" value="" style="edgeStyle=orthogonalEdgeStyle;rounded=0;orthogonalLoop=1;jettySize=auto;html=1;" edge="1" parent="1" source="ZzXBGJE-0dsDp70dzkFh-16" target="ZzXBGJE-0dsDp70dzkFh-18">
          <mxGeometry relative="1" as="geometry" />
        </mxCell>
        <mxCell id="ZzXBGJE-0dsDp70dzkFh-16" value="三维扫描" style="whiteSpace=wrap;html=1;rounded=1;strokeWidth=2;" vertex="1" parent="1">
          <mxGeometry x="360" y="290" width="90" height="60" as="geometry" />
        </mxCell>
        <mxCell id="ZzXBGJE-0dsDp70dzkFh-22" value="" style="edgeStyle=orthogonalEdgeStyle;rounded=0;orthogonalLoop=1;jettySize=auto;html=1;" edge="1" parent="1" source="ZzXBGJE-0dsDp70dzkFh-18" target="ZzXBGJE-0dsDp70dzkFh-21">
          <mxGeometry relative="1" as="geometry" />
        </mxCell>
        <mxCell id="ZzXBGJE-0dsDp70dzkFh-18" value="建模" style="shape=singleArrow;whiteSpace=wrap;html=1;arrowWidth=0.4;arrowSize=0.4;rounded=1;strokeWidth=2;" vertex="1" parent="1">
          <mxGeometry x="490" y="250" width="80" height="60" as="geometry" />
        </mxCell>
        <mxCell id="ZzXBGJE-0dsDp70dzkFh-21" value="导出" style="ellipse;whiteSpace=wrap;html=1;rounded=1;strokeWidth=2;" vertex="1" parent="1">
          <mxGeometry x="580" y="250" width="120" height="60" as="geometry" />
        </mxCell>
        <mxCell id="ZzXBGJE-0dsDp70dzkFh-23" value="模型网站" style="ellipse;whiteSpace=wrap;html=1;rounded=1;strokeWidth=2;" vertex="1" parent="1">
          <mxGeometry x="240" y="340" width="120" height="60" as="geometry" />
        </mxCell>
        <mxCell id="ZzXBGJE-0dsDp70dzkFh-25" value="模型打印" style="rounded=1;whiteSpace=wrap;html=1;strokeWidth=2;" vertex="1" parent="1">
          <mxGeometry x="90" y="430" width="120" height="60" as="geometry" />
        </mxCell>
      </root>
    </mxGraphModel>
  </diagram>
</mxfile>
